<?xml version="1.0" encoding="iso-8859-1"?>
<!-- Generator: Adobe Illustrator 19.0.0, SVG Export Plug-In . SVG Version: 6.00 Build 0)  -->
<svg version="1.1" id="Layer_1" xmlns="http://www.w3.org/2000/svg" xmlns:xlink="http://www.w3.org/1999/xlink" x="0px" y="0px"
	 viewBox="0 0 330.001 330.001" style="enable-background:new 0 0 330.001 330.001;" xml:space="preserve">
<g id="XMLID_312_">
	<path id="XMLID_333_" d="M118.032,328.283c2.208,1.158,4.596,1.718,6.961,1.718c4.313,0,8.552-1.86,11.48-5.339l160-190
		c3.758-4.463,4.588-10.699,2.127-15.989C296.139,113.383,290.834,110,285,110h-82.675l55.33-86.947
		c2.939-4.619,3.128-10.472,0.494-15.271C255.515,2.982,250.475,0,245,0h-90c-5.353,0-10.3,2.852-12.981,7.484l-110,190
		c-2.687,4.641-2.692,10.362-0.014,15.008C34.684,217.138,39.638,220,45,220h90.361l-24.833,91.053
		C108.676,317.846,111.797,325.014,118.032,328.283z" fill="#7b05ba"/>
</g>
<g>
</g>
<g>
</g>
<g>
</g>
<g>
</g>
<g>
</g>
<g>
</g>
<g>
</g>
<g>
</g>
<g>
</g>
<g>
</g>
<g>
</g>
<g>
</g>
<g>
</g>
<g>
</g>
<g>
</g>
</svg>
